# xmcd CD database file
#
# Track frame offsets:
#	150
#	17875
#	29035
#	48705
#	68815
#	85305
#	106762
#	135812
#	164782
#	176975
#	197665
#	220552
#	239870
#	268622
#	285545
#
# Disc length: 4054 seconds
#
# Revision: 0
# Processed by: cddbd v1.5.2PL0 Copyright (c) Steve Scherf et al.
# Submitted via: CDex 1.51
#
DISCID=e20fd40f
DTITLE=Dirty Dozen - Dirty Dozen
DYEAR=1988
DGENRE=Jazz
TTITLE0=Breaking the Ice
TTITLE1=Na Aloe
TTITLE2=The Lady in Red
TTITLE3=Precious Lord
TTITLE4=China Town
TTITLE5=Dirty Dozen SAmba
TTITLE6=Lily of the Valley
TTITLE7=Yearning
TTITLE8=My Reward
TTITLE9=Dirty Dozen Bourbon Street Parade
TTITLE10=Any Old Time
TTITLE11=In my Solitude
TTITLE12=Memories
TTITLE13=Ochi Tchornia
TTITLE14=Deed I Do
EXTD=YEAR: 1988
EXTT0=
EXTT1=
EXTT2=
EXTT3=
EXTT4=
EXTT5=
EXTT6=
EXTT7=
EXTT8=
EXTT9=
EXTT10=
EXTT11=
EXTT12=
EXTT13=
EXTT14=
PLAYORDER=
